<svg width="21" height="20" viewBox="0 0 21 20" fill="none" xmlns="http://www.w3.org/2000/svg">
<path d="M10.5401 9.375V0.648438C10.5401 0.296875 10.8114 0 11.1601 0C15.9536 0 19.8402 3.91797 19.8402 8.75C19.8402 9.10156 19.5457 9.375 19.197 9.375H10.5401ZM0 10.625C0 5.88672 3.49141 1.96484 8.02134 1.33984C8.37784 1.28906 8.6801 1.57812 8.6801 1.94141V11.25L14.7445 17.3633C15.0042 17.625 14.9848 18.0547 14.6864 18.2656C13.1674 19.3594 11.3074 20 9.3001 20C4.16567 20 0 15.8047 0 10.625ZM20.3982 11.25C20.7586 11.25 21.0415 11.5547 20.995 11.9141C20.6966 14.0977 19.6542 16.0391 18.1313 17.4727C17.8988 17.6914 17.5346 17.6758 17.3098 17.4453L11.1601 11.25H20.3982Z" fill="white"/>
</svg>
