<svg width="20" height="20" viewBox="0 0 20 20" fill="none" xmlns="http://www.w3.org/2000/svg">
<path d="M11.3333 1.29032C11.3333 0.576613 10.7375 0 10 0C9.2625 0 8.66667 0.576613 8.66667 1.29032V10.3226C8.66667 11.0363 9.2625 11.6129 10 11.6129C10.7375 11.6129 11.3333 11.0363 11.3333 10.3226V1.29032ZM5.3125 4.8629C5.87917 4.40726 5.95417 3.59274 5.48333 3.04435C5.0125 2.49597 4.17083 2.42339 3.60417 2.87903C1.40417 4.65323 0 7.33065 0 10.3226C0 15.6653 4.47917 20 10 20C15.5208 20 20 15.6653 20 10.3226C20 7.33065 18.5917 4.65323 16.3917 2.87903C15.825 2.42339 14.9833 2.5 14.5125 3.04435C14.0417 3.58871 14.1208 4.40726 14.6833 4.8629C16.3042 6.16532 17.3292 8.12903 17.3292 10.3226C17.3292 14.2419 14.0458 17.4194 9.99583 17.4194C5.94583 17.4194 2.6625 14.2419 2.6625 10.3226C2.6625 8.12903 3.69167 6.16532 5.30833 4.8629H5.3125Z" fill="#F23030"/>
</svg>
