<svg width="32" height="32" viewBox="0 0 32 32" fill="none" xmlns="http://www.w3.org/2000/svg">
<path d="M20 6H12L9.0375 1.55625C8.59375 0.8875 9.06875 0 9.86875 0H22.1313C22.9312 0 23.4062 0.8875 22.9625 1.55625L20 6ZM12 8H20C20.2375 8.15625 20.5063 8.33125 20.8125 8.525C24.3563 10.7937 32 15.6812 32 26C32 29.3125 29.3125 32 26 32H6C2.6875 32 0 29.3125 0 26C0 15.6812 7.64375 10.7937 11.1875 8.525C11.4875 8.33125 11.7625 8.15625 12 8ZM17.25 13.5C17.25 12.8125 16.6875 12.25 16 12.25C15.3125 12.25 14.75 12.8125 14.75 13.5V14.375C14.275 14.4812 13.8 14.65 13.3625 14.9062C12.4938 15.425 11.7437 16.3312 11.75 17.65C11.7563 18.9187 12.5 19.7188 13.2937 20.1938C13.9812 20.6063 14.8375 20.8687 15.5188 21.0688L15.625 21.1C16.4125 21.3375 16.9875 21.525 17.375 21.7687C17.6938 21.9688 17.7375 22.1063 17.7437 22.2812C17.75 22.5938 17.6313 22.7812 17.375 22.9375C17.0625 23.1313 16.5688 23.25 16.0375 23.2313C15.3438 23.2063 14.6938 22.9875 13.8438 22.7C13.7 22.65 13.55 22.6 13.3938 22.55C12.7375 22.3312 12.0312 22.6875 11.8125 23.3375C11.5938 23.9875 11.95 24.7 12.6 24.9188C12.7188 24.9563 12.85 25 12.9812 25.05C13.5 25.2312 14.1 25.4375 14.7437 25.575V26.5C14.7437 27.1875 15.3062 27.75 15.9937 27.75C16.6812 27.75 17.2437 27.1875 17.2437 26.5V25.6375C17.7437 25.5312 18.2437 25.3563 18.6938 25.075C19.5875 24.5188 20.2625 23.5688 20.2437 22.2625C20.225 20.9938 19.5125 20.175 18.7062 19.6625C17.9875 19.2125 17.0875 18.9375 16.3875 18.725L16.3438 18.7125C15.5437 18.4688 14.975 18.2937 14.575 18.0562C14.25 17.8625 14.2437 17.75 14.2437 17.6375C14.2437 17.4062 14.3313 17.2312 14.6313 17.0562C14.9688 16.8562 15.4813 16.7375 15.975 16.7437C16.575 16.75 17.2375 16.8813 17.925 17.0688C18.5938 17.2437 19.275 16.85 19.4562 16.1812C19.6375 15.5125 19.2375 14.8312 18.5688 14.65C18.1625 14.5437 17.7125 14.4375 17.25 14.3562V13.5Z" fill="white"/>
</svg>
