<svg width="24" height="20" viewBox="0 0 24 20" fill="none" xmlns="http://www.w3.org/2000/svg">
<path d="M1.71973 0.397404C1.83432 0.123179 2.08643 -0.0341632 2.34236 0.00629625L11.6933 1.38192L21.0442 0.00629625C21.3001 -0.0296677 21.5523 0.127674 21.6668 0.397404L23.2597 4.14665C23.6035 4.95134 23.2368 5.92686 22.5034 6.17411L16.2618 8.27351C15.7308 8.45333 15.1617 8.18809 14.879 7.63065L11.6933 1.38192L8.50756 7.63065C8.22489 8.18809 7.65573 8.45333 7.12478 8.27351L0.887007 6.17411C0.149781 5.92686 -0.213102 4.95134 0.130682 4.14665L1.71973 0.397404ZM11.7353 4.25903L13.8324 8.36791C14.4015 9.48279 15.536 10.0133 16.6018 9.65362L21.472 8.01726V15.5247C21.472 16.5137 20.8991 17.3769 20.0816 17.6196L12.2854 19.9123C11.8957 20.0292 11.487 20.0292 11.1012 19.9123L3.30496 17.6196C2.48751 17.3724 1.91454 16.5092 1.91454 15.5202V8.01277L6.78863 9.65362C7.85055 10.0133 8.98885 9.48279 9.55801 8.36791L11.6513 4.25903H11.7353Z" fill="white"/>
</svg>
