<svg width="40" height="32" viewBox="0 0 40 32" fill="none" xmlns="http://www.w3.org/2000/svg">
<path d="M2.94099 0.635846C3.13696 0.197086 3.5681 -0.0546611 4.00577 0.010074L19.9972 2.21107L35.9887 0.010074C36.4263 -0.0474683 36.8575 0.204279 37.0534 0.635846L39.7775 6.63463C40.3654 7.92214 39.7383 9.48298 38.4841 9.87858L27.81 13.2376C26.902 13.5253 25.9287 13.1009 25.4453 12.209L19.9972 2.21107L14.5492 12.209C14.0658 13.1009 13.0924 13.5253 12.1844 13.2376L1.51691 9.87858C0.256148 9.48298 -0.364435 7.92214 0.223486 6.63463L2.94099 0.635846ZM20.0691 6.81445L23.6554 13.3887C24.6287 15.1725 26.5689 16.0212 28.3914 15.4458L36.7203 12.8276V24.8396C36.7203 26.422 35.7404 27.803 34.3425 28.1914L21.0097 31.8597C20.3434 32.0468 19.6445 32.0468 18.9847 31.8597L5.65195 28.1914C4.25401 27.7958 3.27414 26.4148 3.27414 24.8324V12.8204L11.6095 15.4458C13.4256 16.0212 15.3722 15.1725 16.3456 13.3887L19.9254 6.81445H20.0691Z" fill="white"/>
</svg>
