<svg width="28" height="32" viewBox="0 0 28 32" fill="none" xmlns="http://www.w3.org/2000/svg">
<path d="M10 7C10 4.79375 11.7937 3 14 3C16.2062 3 18 4.79375 18 7V10H10V7ZM7 10H3C1.34375 10 0 11.3438 0 13V26C0 29.3125 2.6875 32 6 32H22C25.3125 32 28 29.3125 28 26V13C28 11.3438 26.6562 10 25 10H21V7C21 3.13125 17.8687 0 14 0C10.1313 0 7 3.13125 7 7V10ZM8.5 13C8.89782 13 9.27936 13.158 9.56066 13.4393C9.84196 13.7206 10 14.1022 10 14.5C10 14.8978 9.84196 15.2794 9.56066 15.5607C9.27936 15.842 8.89782 16 8.5 16C8.10218 16 7.72064 15.842 7.43934 15.5607C7.15804 15.2794 7 14.8978 7 14.5C7 14.1022 7.15804 13.7206 7.43934 13.4393C7.72064 13.158 8.10218 13 8.5 13ZM18 14.5C18 14.1022 18.158 13.7206 18.4393 13.4393C18.7206 13.158 19.1022 13 19.5 13C19.8978 13 20.2794 13.158 20.5607 13.4393C20.842 13.7206 21 14.1022 21 14.5C21 14.8978 20.842 15.2794 20.5607 15.5607C20.2794 15.842 19.8978 16 19.5 16C19.1022 16 18.7206 15.842 18.4393 15.5607C18.158 15.2794 18 14.8978 18 14.5Z" fill="white"/>
</svg>
