<svg width="22" height="20" viewBox="0 0 22 20" fill="none" xmlns="http://www.w3.org/2000/svg">
<path d="M0 1.25C0 0.558594 0.477172 0 1.0678 0H1.60169C3.07659 0 4.27119 1.39844 4.27119 3.125V14.375C4.27119 14.7188 4.51144 15 4.80508 15H20.2881C20.8788 15 21.3559 15.5586 21.3559 16.25C21.3559 16.9414 20.8788 17.5 20.2881 17.5H18.0624C18.1225 17.6953 18.1525 17.9062 18.1525 18.125C18.1525 19.1602 17.4351 20 16.5508 20C15.6666 20 14.9492 19.1602 14.9492 18.125C14.9492 17.9062 14.9825 17.6953 15.0392 17.5H8.45228C8.51234 17.6953 8.54237 17.9062 8.54237 18.125C8.54237 19.1602 7.82495 20 6.94068 20C6.05641 20 5.33898 19.1602 5.33898 18.125C5.33898 17.9062 5.37235 17.6953 5.42908 17.5H4.80508C3.33019 17.5 2.13559 16.1016 2.13559 14.375V3.125C2.13559 2.78125 1.89534 2.5 1.60169 2.5H1.0678C0.477172 2.5 0 1.94141 0 1.25ZM14.4153 3.75V2.1875C14.4153 2.01562 14.2951 1.875 14.1483 1.875H11.4788C11.332 1.875 11.2119 2.01562 11.2119 2.1875V3.75H14.4153ZM9.61017 3.75V2.1875C9.61017 0.980469 10.4477 0 11.4788 0H14.1483C15.1794 0 16.0169 0.980469 16.0169 2.1875V3.75V12.5H9.61017V3.75ZM17.0847 12.5V3.75H17.6186C18.5029 3.75 19.2203 4.58984 19.2203 5.625V10.625C19.2203 11.6602 18.5029 12.5 17.6186 12.5H17.0847ZM8.00847 3.75H8.54237V12.5H8.00847C7.12421 12.5 6.40678 11.6602 6.40678 10.625V5.625C6.40678 4.58984 7.12421 3.75 8.00847 3.75Z" fill="white"/>
</svg>
